<?xml version="1.0" encoding="UTF-8" standalone="no"?>
<!-- Created with Inkscape (http://www.inkscape.org/) -->

<svg
   width="4096"
   height="2048"
   viewBox="0 0 1083.7333 541.86666"
   version="1.1"
   id="svg1"
   xml:space="preserve"
   inkscape:version="1.3.2 (091e20e, 2023-11-25, custom)"
   sodipodi:docname="EARS_web Banner.svg"
   xmlns:inkscape="http://www.inkscape.org/namespaces/inkscape"
   xmlns:sodipodi="http://sodipodi.sourceforge.net/DTD/sodipodi-0.dtd"
   xmlns:xlink="http://www.w3.org/1999/xlink"
   xmlns="http://www.w3.org/2000/svg"
   xmlns:svg="http://www.w3.org/2000/svg"><sodipodi:namedview
     id="namedview1"
     pagecolor="#1d1722"
     bordercolor="#666666"
     borderopacity="1.0"
     inkscape:showpageshadow="2"
     inkscape:pageopacity="0.0"
     inkscape:pagecheckerboard="0"
     inkscape:deskcolor="#d1d1d1"
     inkscape:document-units="mm"
     showguides="false"
     inkscape:zoom="0.18284757"
     inkscape:cx="1815.72"
     inkscape:cy="1457.4981"
     inkscape:window-width="1920"
     inkscape:window-height="1017"
     inkscape:window-x="-8"
     inkscape:window-y="-8"
     inkscape:window-maximized="1"
     inkscape:current-layer="layer1" /><defs
     id="defs1"><pattern
       inkscape:collect="always"
       xlink:href="#Bricks"
       id="pattern19"
       patternTransform="matrix(0.02992692,0.00209269,-0.00209269,0.02992692,0,0)"
       x="0"
       y="0"
       preserveAspectRatio="none" /><pattern
       inkscape:collect="always"
       xlink:href="#Bricks"
       id="pattern18"
       patternTransform="matrix(0.02999543,5.2357218e-4,-5.2357218e-4,0.02999543,0,0)"
       x="0"
       y="0"
       preserveAspectRatio="none" /><pattern
       patternUnits="userSpaceOnUse"
       width="100"
       height="100"
       id="Bricks"
       style="fill:#b1734c"
       patternTransform="scale(0.25,0.25)"
       inkscape:collect="always"
       inkscape:label="Bricks"
       inkscape:isstock="true"><g
         id="g13367"><rect
           style="fill:none;stroke:none;stroke-width:0"
           id="rect13349"
           width="100"
           height="100"
           x="0"
           y="0" /><rect
           style="fill-opacity:1;stroke-width:0"
           id="rect13351"
           width="40"
           height="40"
           x="0"
           y="60" /><rect
           style="fill-opacity:1;stroke-width:0"
           id="rect13353"
           width="90"
           height="40"
           x="0"
           y="10" /><rect
           style="fill-opacity:1;stroke-width:0"
           id="rect13355"
           width="50"
           height="40"
           x="50"
           y="60" /></g></pattern></defs><g
     inkscape:label="Layer 1"
     inkscape:groupmode="layer"
     id="layer1"><circle
       style="fill:#9dc2d1;fill-opacity:0.21576764;stroke:none;stroke-width:0.570647"
       id="circle42"
       cx="937.46667"
       cy="1680.1106"
       r="1446.7926" /><circle
       style="fill:#9dc2d1;fill-opacity:1;stroke:none;stroke-width:0.564999"
       id="path42"
       cx="937.46667"
       cy="1680.1106"
       r="1432.4727" /><g
       id="g1"
       transform="matrix(1.4109965,0,0,1.4109965,732.55307,111.17955)"><g
         id="layer2"
         inkscape:label="Layer 2" /><g
         inkscape:label="Layer 1"
         id="layer1-6"
         style="display:inline"><g
           id="g31"
           transform="matrix(1.9858443,0,0,1.9858443,-217.95191,-302.9893)"
           inkscape:export-filename="TillyVector.png"
           inkscape:export-xdpi="200"
           inkscape:export-ydpi="200"><path
             style="fill:#7a5437;fill-opacity:1;stroke:#000000;stroke-width:0.264583px;stroke-linecap:butt;stroke-linejoin:miter;stroke-opacity:1"
             d="m 153.67105,224.07964 2.04639,8.889 -0.31974,9.72035 h -2.74984 l -1.79059,-11.06329 z"
             id="path15" /><path
             style="display:inline;fill:url(#pattern19);fill-opacity:1;stroke:#000000;stroke-width:0.264583px;stroke-linecap:butt;stroke-linejoin:miter;stroke-opacity:1"
             d="m 153.67105,224.07964 2.04639,8.889 -0.31974,9.72035 h -2.74984 l -1.79059,-11.06329 z"
             id="path19" /><path
             style="fill:none;stroke:#272727;stroke-width:0.665;stroke-linecap:butt;stroke-linejoin:miter;stroke-dasharray:none;stroke-opacity:1"
             d="m 156.09683,222.2978 -13.20402,-0.36175"
             id="path22" /><path
             style="fill:none;stroke:#676767;stroke-width:0.465;stroke-linecap:butt;stroke-linejoin:miter;stroke-dasharray:none;stroke-opacity:1"
             d="m 143.07369,218.40895 -0.27132,6.69245"
             id="path23" /><path
             style="opacity:1;fill:#785336;fill-opacity:1;stroke:#000000;stroke-width:0.264583px;stroke-linecap:butt;stroke-linejoin:miter;stroke-opacity:1"
             d="m 122.44489,223.22956 -0.85267,75.29488 88.59165,-0.85748 v -53.8456 l -56.9152,-0.7674 0.38369,-18.8012 z"
             id="path18"
             sodipodi:nodetypes="ccccccc" /><rect
             style="opacity:1;fill:#b2ada4;fill-opacity:1;stroke:#000000;stroke-width:0.237315;stroke-dasharray:none;stroke-opacity:1"
             id="rect27"
             width="15.583104"
             height="0.79641074"
             x="178.73782"
             y="239.96469" /><path
             style="opacity:1;fill:url(#pattern18);fill-opacity:1;stroke:#000000;stroke-width:0.264583px;stroke-linecap:butt;stroke-linejoin:miter;stroke-opacity:1"
             d="m 122.44489,223.22956 -0.85039,75.29397 88.58931,-0.85657 v -53.8456 l -56.9152,-0.7674 0.38369,-18.8012 z"
             id="path1"
             sodipodi:nodetypes="ccccccc" /><path
             style="opacity:1;fill:#85102e;fill-opacity:1;stroke:#000000;stroke-width:0.264583px;stroke-linecap:butt;stroke-linejoin:miter;stroke-opacity:1"
             d="m 128.19656,228.99025 -0.27132,5.06456 h -0.67829 l -0.0452,1.26614 18.90164,0.36175 0.22609,-6.55679 z"
             id="path2" /><path
             style="fill:#5d7180;fill-opacity:1;stroke:#000000;stroke-width:0.264583px;stroke-linecap:butt;stroke-linejoin:miter;stroke-opacity:1"
             d="m 128.92007,230.07551 -0.18088,3.84364 7.95859,0.2261 0.18087,-3.84364 z"
             id="path3" /><path
             style="fill:#5d7180;fill-opacity:1;stroke:#000000;stroke-width:0.264583px;stroke-linecap:butt;stroke-linejoin:miter;stroke-opacity:1"
             d="m 137.60216,230.57293 -0.13566,3.5271 7.91337,0.18088 0.0452,-3.66276 z"
             id="path4"
             sodipodi:nodetypes="ccccc" /><path
             style="fill:#85102e;fill-opacity:1;stroke:#000000;stroke-width:0.264583px;stroke-linecap:butt;stroke-linejoin:miter;stroke-opacity:1"
             d="m 156.16509,250.36295 -0.57555,16.43507 21.87079,0.44765 0.31975,-16.24322 z"
             id="path5" /><path
             style="fill:#5d7180;fill-opacity:1;stroke:#000000;stroke-width:0.264583px;stroke-linecap:butt;stroke-linejoin:miter;stroke-opacity:1"
             d="m 166.58889,251.76985 v 6.07521 l -9.46456,-0.0639 0.064,-6.39496 z"
             id="path6" /><path
             style="fill:#5d7180;fill-opacity:1;stroke:#000000;stroke-width:0.264583px;stroke-linecap:butt;stroke-linejoin:miter;stroke-opacity:1"
             d="m 168.37948,252.21749 -0.1918,5.17993 7.86581,0.2558 0.1279,-5.17993 z"
             id="path7"
             sodipodi:nodetypes="ccccc" /><path
             style="fill:#5d7180;fill-opacity:1;stroke:#000000;stroke-width:0.264583px;stroke-linecap:butt;stroke-linejoin:miter;stroke-opacity:1"
             d="m 166.01334,259.18801 v 6.52287 h -9.2727 l 0.2558,-6.71472 z"
             id="path8" /><path
             style="fill:#5d7180;fill-opacity:1;stroke:#000000;stroke-width:0.264583px;stroke-linecap:butt;stroke-linejoin:miter;stroke-opacity:1"
             d="m 167.35628,259.06011 -0.064,6.52287 9.33665,0.31975 -0.064,-6.71472 z"
             id="path9" /><path
             style="display:inline;fill:#85102e;fill-opacity:1;stroke:#000000;stroke-width:0.264583px;stroke-linecap:butt;stroke-linejoin:miter;stroke-opacity:1"
             d="m 186.57712,251.03772 -0.57555,16.43507 21.87079,0.44765 0.31975,-16.24322 z"
             id="path5-5" /><path
             style="display:inline;fill:#5d7180;fill-opacity:1;stroke:#000000;stroke-width:0.264583px;stroke-linecap:butt;stroke-linejoin:miter;stroke-opacity:1"
             d="m 197.00092,252.44462 v 6.07521 l -9.46456,-0.0639 0.064,-6.39496 z"
             id="path6-7" /><path
             style="display:inline;fill:#5d7180;fill-opacity:1;stroke:#000000;stroke-width:0.264583px;stroke-linecap:butt;stroke-linejoin:miter;stroke-opacity:1"
             d="m 198.07576,252.83928 0.0265,5.45125 8.36322,0.35721 0.064,-5.56363 z"
             id="path7-8"
             sodipodi:nodetypes="ccccc" /><path
             style="display:inline;fill:#5d7180;fill-opacity:1;stroke:#000000;stroke-width:0.264583px;stroke-linecap:butt;stroke-linejoin:miter;stroke-opacity:1"
             d="m 196.42537,259.86278 v 6.52287 h -9.2727 l 0.2558,-6.71472 z"
             id="path8-1" /><path
             style="display:inline;fill:#5d7180;fill-opacity:1;stroke:#000000;stroke-width:0.264583px;stroke-linecap:butt;stroke-linejoin:miter;stroke-opacity:1"
             d="m 197.76831,259.73488 -0.064,6.52287 9.33665,0.31975 -0.064,-6.71472 z"
             id="path9-8" /><path
             style="fill:none;stroke:#272727;stroke-width:0.665;stroke-linecap:butt;stroke-linejoin:miter;stroke-dasharray:none;stroke-opacity:1"
             d="M 158.71955,237.85322 V 224.46833"
             id="path24" /><path
             style="fill:#85102e;fill-opacity:1;stroke:#000000;stroke-width:0.264583px;stroke-linecap:butt;stroke-linejoin:miter;stroke-opacity:1"
             d="m 154.56635,236.10218 -0.1279,6.58681 8.6332,0.31975 -0.064,-5.49967 z"
             id="path20" /><ellipse
             style="opacity:1;fill:#e3e3e3;fill-opacity:1;stroke:#000000;stroke-width:0.265;stroke-dasharray:none;stroke-opacity:1"
             id="path25"
             cx="186.44525"
             cy="236.42192"
             rx="7.5780358"
             ry="3.7090807" /><rect
             style="opacity:1;fill:#1e5b8c;fill-opacity:1;stroke:#000000;stroke-width:0.259329;stroke-dasharray:none;stroke-opacity:1"
             id="rect28"
             width="0.8648358"
             height="3.8945253"
             x="181.37155"
             y="238.66434" /><rect
             style="opacity:1;fill:#1e5b8c;fill-opacity:1;stroke:#000000;stroke-width:0.259329;stroke-dasharray:none;stroke-opacity:1"
             id="rect29"
             width="0.8648358"
             height="3.8945253"
             x="190.50584"
             y="238.66434" /><path
             style="fill:none;stroke:#272727;stroke-width:0.465;stroke-linecap:butt;stroke-linejoin:miter;stroke-dasharray:none;stroke-opacity:1"
             d="m 169.27477,238.21252 v 4.66832"
             id="path13" /><path
             style="fill:none;stroke:#000000;stroke-width:0.765;stroke-linecap:butt;stroke-linejoin:miter;stroke-dasharray:none;stroke-opacity:1"
             d="m 186.39372,241.15423 0.0452,2.84881"
             id="path30" /><rect
             style="opacity:1;fill:#141414;fill-opacity:1;stroke:#000000;stroke-width:0.264999;stroke-dasharray:none;stroke-opacity:1"
             id="rect30"
             width="2.0800853"
             height="2.0348661"
             x="185.39891"
             y="239.79765" /><path
             style="fill:#d8d8d8;fill-opacity:1;stroke:none;stroke-width:0.264583px;stroke-linecap:butt;stroke-linejoin:miter;stroke-opacity:1"
             d="m 178.93117,235.91033 c 0,0 4.77134,1.85416 7.46967,1.85416 2.69833,0 7.40167,-1.93875 7.40167,-1.93875 l 0.22079,0.50026 -0.22383,1.0232 -0.83134,1.05517 -1.08715,0.67147 -2.33416,0.76739 -1.56677,0.19185 -2.20626,0.1279 -1.95047,-0.28777 -1.63072,-0.35173 -1.85453,-0.92727 -1.18307,-1.15109 -0.35173,-0.95925 z"
             id="path31"
             sodipodi:nodetypes="cscccccccccccccc" /><path
             style="fill:#343133;fill-opacity:1;stroke:#000000;stroke-width:0.264583px;stroke-linecap:butt;stroke-linejoin:miter;stroke-opacity:1"
             d="m 122.39966,222.54485 -0.19184,1.40689 31.65508,0.70345 v -1.59875 z"
             id="path14"
             sodipodi:nodetypes="ccccc" /><path
             style="fill:none;stroke:#272727;stroke-width:0.665;stroke-linecap:butt;stroke-linejoin:miter;stroke-dasharray:none;stroke-opacity:1"
             d="m 155.65349,236.23008 0.31975,-19.12096"
             id="path21" /><path
             style="fill:#d8b97e;fill-opacity:1;stroke:#000000;stroke-width:0.226079px;stroke-linecap:butt;stroke-linejoin:miter;stroke-opacity:1"
             d="m 185.46635,233.94586 v 3.16099 c 0,0 0.39972,0.43107 0.91208,0.43107 0.51235,0 0.91193,-0.3667 0.91193,-0.3667 v -3.16085"
             id="path27"
             sodipodi:nodetypes="ccscc" /><ellipse
             style="opacity:1;fill:#d8b97e;fill-opacity:1;stroke:#000000;stroke-width:0.204746;stroke-dasharray:none;stroke-opacity:1"
             id="path26"
             ry="0.56113642"
             rx="0.88861614"
             cy="233.94585"
             cx="186.36891" /><ellipse
             style="opacity:1;fill:none;fill-opacity:1;stroke:#000000;stroke-width:0.265;stroke-dasharray:none;stroke-opacity:1"
             id="ellipse31"
             cx="186.44525"
             cy="236.42192"
             rx="7.5780358"
             ry="3.7090807" /><path
             style="fill:none;stroke:#272727;stroke-width:0.465;stroke-linecap:butt;stroke-linejoin:miter;stroke-dasharray:none;stroke-opacity:1"
             d="m 191.46531,238.40437 0.1279,4.92412"
             id="path12" /><path
             style="fill:#8b8589;fill-opacity:1;stroke:#000000;stroke-width:0.264583px;stroke-linecap:butt;stroke-linejoin:miter;stroke-opacity:1"
             d="m 152.07231,241.5379 -0.0639,2.43009 59.72899,1.27899 -0.5116,-2.04639 z"
             id="path10"
             sodipodi:nodetypes="ccccc" /><path
             style="fill:none;stroke:#272727;stroke-width:0.465;stroke-linecap:butt;stroke-linejoin:miter;stroke-dasharray:none;stroke-opacity:1"
             d="m 154.6303,238.53226 56.9152,1.0232"
             id="path11" /></g></g></g><path
       style="fill:#468e58;fill-opacity:1;stroke:#000000;stroke-width:0.865;stroke-linecap:butt;stroke-linejoin:miter;stroke-dasharray:none;stroke-opacity:1"
       d="m 754.07611,488.7296 c 0,0 -6.33069,-25.68455 18.63034,-27.13156 11.57928,-0.67126 18.08768,23.15225 18.08768,23.15225 0,0 7.95859,-17.36418 17.36421,-16.64067 9.40559,0.7235 14.47014,15.91717 14.47014,15.91717 0,0 4.12588,-13.54643 18.63034,-13.02314 16.27236,0.58708 23.33313,14.47015 23.33313,14.47015 0,0 -1.98964,-13.02315 23.33313,-12.29962 25.32277,0.7235 22.60963,14.28927 22.60963,14.28927 0,0 7.95002,-14.25734 27.49329,-13.02314 16.63212,1.05035 22.7905,13.92753 22.7905,13.92753 0,0 15.19367,-14.47017 29.66381,-13.02314 14.47019,1.44701 13.02319,13.74664 13.02319,13.74664 0,0 14.4701,-13.02314 20.2582,-1.44701 5.788,11.57613 -5.7881,16.64068 -5.7881,16.64068 0,0 13.7467,9.40559 8.6821,15.91717 -5.0646,6.51159 -26.0463,-0.54264 -26.0463,-0.54264 -0.79133,0.003 -5.78804,8.50123 -17.36414,7.77773 -11.57613,-0.7235 -14.02442,-8.38775 -14.02442,-8.38775 0,0 -2.61629,6.94072 -22.15098,6.94072 -19.53471,0 -21.31401,-6.63192 -21.31401,-6.63192 0,0 -5.45579,5.90841 -21.37296,7.35545 -15.91718,1.447 -16.23063,-7.69528 -16.23063,-7.69528 0,0 -8.84012,8.71094 -27.99489,8.7147 -17.49934,0.003 -25.61496,-5.65263 -25.61496,-5.65263 0,0 -7.44698,7.18366 -17.70398,7.52722 -10.22622,0.34253 -19.6225,-9.39431 -19.6225,-9.39431 0,0 -4.97677,9.39431 -14.38239,9.39431 -9.40559,0 -20.98172,-7.23509 -20.98172,-7.23509 0,0 -7.23508,6.51159 -14.47014,0 -7.23508,-6.51155 1.44701,-15.19364 1.44701,-15.19364 0,0 -11.03351,1.98963 -10.31001,-11.03351 0.72353,-13.02313 15.55543,-7.41594 15.55543,-7.41594 z"
       id="path16"
       sodipodi:nodetypes="cscscscscscscscscscscscscscscscsc" /><path
       style="fill:none;stroke:#000000;stroke-width:0.565;stroke-linecap:butt;stroke-linejoin:miter;stroke-dasharray:none;stroke-opacity:1"
       d="m 767.6419,496.86906 c 0,0 0.18087,-4.52194 3.79841,-7.05422 3.61754,-2.53227 9.22472,1.08527 9.22472,1.08527"
       id="path17" /><path
       style="fill:none;stroke:#000000;stroke-width:0.565;stroke-linecap:butt;stroke-linejoin:miter;stroke-dasharray:none;stroke-opacity:1"
       d="m 781.0268,505.00851 c 0,0 0.18087,4.70281 3.43665,5.42632 3.25577,0.7235 10.85262,-2.17054 10.85262,-2.17054"
       id="path28" /><path
       style="fill:none;stroke:#000000;stroke-width:0.565;stroke-linecap:butt;stroke-linejoin:miter;stroke-dasharray:none;stroke-opacity:1"
       d="m 810.32885,489.81484 c 0,0 0.36176,-2.89401 5.60718,-1.447 5.24544,1.447 5.60721,5.24541 5.60721,5.24541"
       id="path29" /><path
       style="fill:none;stroke:#000000;stroke-width:0.565;stroke-linecap:butt;stroke-linejoin:miter;stroke-dasharray:none;stroke-opacity:1"
       d="m 843.42933,500.84834 c 0,0 -3.61754,-3.97928 -6.69245,-3.07491 -3.0749,0.9044 -2.89401,6.14982 -2.89401,6.14982"
       id="path32" /><path
       style="fill:none;stroke:#000000;stroke-width:0.565;stroke-linecap:butt;stroke-linejoin:miter;stroke-dasharray:none;stroke-opacity:1"
       d="m 844.16069,513.15966 c 0,0 4.09277,-3.58116 7.54605,-1.27899 3.45329,2.30219 -0.51159,6.13918 -0.51159,6.13918"
       id="path33" /><path
       style="fill:none;stroke:#000000;stroke-width:0.565;stroke-linecap:butt;stroke-linejoin:miter;stroke-dasharray:none;stroke-opacity:1"
       d="m 883.0414,494.87942 c 0,0 -2.17054,-3.97931 2.35141,-6.14982 4.52191,-2.17053 6.87331,1.98964 6.87331,1.98964"
       id="path34" /><path
       style="fill:none;stroke:#000000;stroke-width:0.565;stroke-linecap:butt;stroke-linejoin:miter;stroke-dasharray:none;stroke-opacity:1"
       d="m 903.66138,505.55115 c 0,0 -0.90439,4.34104 4.52192,5.96894 5.42631,1.62788 9.22472,-2.53227 9.22472,-2.53227"
       id="path35" /><path
       style="fill:none;stroke:#000000;stroke-width:0.565;stroke-linecap:butt;stroke-linejoin:miter;stroke-dasharray:none;stroke-opacity:1"
       d="m 930.79292,493.25152 c 0,0 1.44701,-5.60719 6.51158,-4.34105 5.06455,1.26614 8.50123,7.05419 8.50123,7.05419"
       id="path36" /><path
       style="fill:none;stroke:#000000;stroke-width:0.565;stroke-linecap:butt;stroke-linejoin:miter;stroke-dasharray:none;stroke-opacity:1"
       d="m 936.37611,506.25311 c 0,0 0.2558,6.39496 6.77868,6.26706 6.52285,-0.1279 6.13915,-4.22066 6.13915,-4.22066"
       id="path37" /><path
       style="fill:none;stroke:#000000;stroke-width:0.565;stroke-linecap:butt;stroke-linejoin:miter;stroke-dasharray:none;stroke-opacity:1"
       d="m 957.60741,497.68384 c 0,0 3.45326,-8.05765 8.44135,-6.13915 4.98808,1.91849 1.53479,9.97614 1.53479,9.97614"
       id="path38" /><path
       style="fill:none;stroke:#000000;stroke-width:0.565;stroke-linecap:butt;stroke-linejoin:miter;stroke-dasharray:none;stroke-opacity:1"
       d="m 989.19853,493.97478 c 0,0 0.7674,-3.83699 3.83699,-3.83699 3.06959,0 5.49968,6.90655 5.49968,6.90655"
       id="path39" /><path
       style="fill:none;stroke:#000000;stroke-width:0.565;stroke-linecap:butt;stroke-linejoin:miter;stroke-dasharray:none;stroke-opacity:1"
       d="m 984.84997,508.17161 c 0,0 -1.91849,2.17429 2.55797,3.19746 4.47648,1.0232 6.77867,-0.89527 6.77867,-0.89527"
       id="path40" /><path
       style="fill:none;stroke:#000000;stroke-width:0.565;stroke-linecap:butt;stroke-linejoin:miter;stroke-dasharray:none;stroke-opacity:1"
       d="m 1009.5345,503.31142 c 0,0 2.8138,1.279 2.0464,4.34859 -0.7674,3.06956 -5.4996,1.91849 -5.4996,1.91849"
       id="path41" /><g id="ears_logo_sep"><path
       style="fill:#ffffff;fill-opacity:1;stroke-width:0.860504"
       d="m 109.42683,272.99166 c -2.447,-1.49202 -2.56038,-5.11678 -0.21768,-6.95954 2.64151,-2.07782 6.60313,0.004 6.60313,3.47081 0,3.15709 -3.65462,5.15382 -6.38545,3.48873 z m 75.62447,0.30074 c -1.97079,-0.79728 -2.93042,-3.47617 -1.99927,-5.58119 1.82069,-4.11598 7.94132,-2.74629 7.94132,1.77715 0,2.96666 -3.1024,4.95279 -5.94205,3.80404 z m 105.30123,-0.30074 c -3.02138,-1.84224 -2.3054,-6.60995 1.148,-7.64462 3.31423,-0.99296 6.35873,2.92198 4.74791,6.10538 -0.98702,1.95063 -3.9518,2.72463 -5.89591,1.53924 z m 59.86378,0.01 c -2.9481,-1.9996 -2.48897,-6.05214 0.84207,-7.43265 4.06982,-1.68669 7.37541,3.42178 4.35023,6.72283 -1.28042,1.39718 -3.69272,1.72695 -5.1923,0.70982 z m 35.88721,0.0457 c -1.17072,-0.72538 -2.15912,-2.85612 -1.94291,-4.18841 0.82869,-5.10662 8.25146,-4.58853 8.25146,0.57594 0,3.29503 -3.54481,5.32489 -6.30855,3.61247 z m 25.06853,-0.0555 c -3.1776,-1.93748 -2.15771,-7.0322 1.54686,-7.72717 2.5862,-0.48518 5.40468,2.25625 4.88443,4.75091 -0.6264,3.00371 -3.90096,4.5191 -6.43129,2.97626 z m 26.16787,0.30524 c -3.51318,-1.45316 -2.99887,-6.81669 0.7617,-7.94339 4.41501,-1.32276 7.19872,5.22793 3.24583,7.63815 -1.00344,0.61184 -2.91439,0.75738 -4.00753,0.30524 z m -237.41439,-1.20293 c -0.0695,-0.0695 -0.12648,-1.33316 -0.12648,-2.80799 v -2.6815 h 19.43965 19.43966 l -0.0873,2.73734 -0.0873,2.73735 -19.22588,0.0707 c -10.57425,0.0388 -19.28281,0.0137 -19.35238,-0.0559 z m 103.99687,-2.6815 v -2.80799 h 19.27648 19.27648 v 2.80799 2.80799 H 323.19888 303.9224 Z m 98.50736,-12.69852 c -6.35581,-0.87744 -9.03845,-1.5048 -13.05336,-3.05262 -3.11997,-1.20281 -7.74137,-3.70264 -7.74007,-4.18679 8.1e-4,-0.30691 5.40827,-14.18356 5.60289,-14.37818 0.0503,-0.0503 0.71735,0.33119 1.48251,0.84758 18.79432,12.68413 41.78794,6.28028 41.78794,-11.63817 0,-10.47875 -5.16115,-15.63061 -24.28532,-24.24154 -18.49005,-8.32542 -25.00583,-17.02974 -24.95215,-33.33317 0.0733,-22.26755 20.08431,-34.4865 47.41608,-28.95285 5.07069,1.02662 11.8391,4.02595 11.8391,5.24633 0,0.40257 -4.20704,13.05693 -4.43727,13.34685 -0.0495,0.0624 -1.29123,-0.50559 -2.75934,-1.26212 -19.79968,-10.20292 -36.87235,-4.28195 -36.13648,12.53248 0.42473,9.7052 3.07274,12.36315 21.3245,21.40453 23.1246,11.45522 28.30084,18.4048 27.69269,37.17999 -0.63701,19.66618 -20.74435,33.66807 -43.78172,30.48768 z m -325.371516,-1.8462 c -0.112021,-0.11203 -0.203673,-26.34077 -0.203673,-58.2861 v -58.08242 h 34.758379 34.75837 v 7.13382 7.13382 H 119.65746 92.943601 v 16.24081 16.24082 h 19.124699 19.12469 v 6.67846 6.67847 H 112.0683 92.943601 v 20.9461 20.9461 h 26.264009 26.264 l -0.0814,7.2097 -0.0814,7.20971 -34.02345,0.0772 c -18.712902,0.0424 -34.115112,-0.0145 -34.227141,-0.12649 z m 86.312816,-0.16212 c 0,-0.20489 10.54317,-26.77665 23.42929,-59.04837 l 23.4293,-58.67586 2.14619,0.007 2.14619,0.007 1.41723,3.86358 c 0.77948,2.12497 2.53639,6.8689 3.90424,10.54205 1.36785,3.67316 3.13738,8.45433 3.93229,10.62483 0.79492,2.1705 7.14519,19.31443 14.11172,38.09761 17.37542,46.84773 19.94635,53.80141 20.1182,54.41433 0.17806,0.63512 -16.99671,0.84291 -17.38765,0.21037 -0.10906,-0.17648 -1.93618,-5.67483 -4.06026,-12.21856 l -3.86196,-11.89769 h -21.65565 -21.65566 l -2.39055,6.83025 c -1.31481,3.75663 -3.24115,9.22083 -4.28078,12.14267 l -1.89021,5.31241 -8.72597,0.0805 c -6.73531,0.0621 -8.72596,-0.004 -8.72596,-0.29196 z m 64.57072,-36.46591 c -0.0847,-0.2206 -0.49704,-1.4842 -0.91641,-2.80799 -0.41936,-1.32378 -1.46961,-4.59256 -2.33387,-7.26395 -0.86427,-2.67139 -2.22843,-6.90614 -3.03148,-9.41057 -0.80306,-2.50443 -3.19857,-9.94939 -5.32337,-16.54438 -2.1248,-6.59499 -3.99951,-12.50315 -4.16603,-13.12926 -0.3714,-1.39644 -0.61082,-1.43065 -1.06261,-0.15178 -0.33896,0.95949 -7.72535,22.0046 -11.90644,33.92357 -1.14211,3.25575 -2.79176,7.96863 -3.66592,10.47305 -0.87415,2.50442 -1.65316,4.72426 -1.73113,4.93295 -0.11236,0.30078 3.4283,0.37947 17.07471,0.37947 14.14403,0 17.189,-0.0716 17.06255,-0.40111 z m 54.3262,36.62673 c -0.11131,-0.11131 -0.20238,-26.32299 -0.20238,-58.24819 v -58.0458 l 4.17404,-0.20242 c 2.29573,-0.11133 6.49633,-0.3521 9.33468,-0.53507 21.53759,-1.38827 34.85177,0.33529 43.63615,5.64885 21.05525,12.73606 16.92026,49.04839 -6.50806,57.152 -1.21986,0.42193 -2.26183,0.80771 -2.31549,0.85728 -0.0536,0.0496 0.85297,1.57165 2.01471,3.3824 4.03827,6.29422 31.09423,49.43679 31.24258,49.81844 0.11875,0.30548 -1.69924,0.36757 -8.88952,0.30356 l -9.03878,-0.0805 -2.26194,-3.6428 c -1.24406,-2.00354 -7.25751,-11.7025 -13.3632,-21.55323 -6.1057,-9.85074 -12.03374,-19.41309 -13.17343,-21.24967 l -2.07215,-3.33923 -8.37096,-0.45535 c -4.60402,-0.25044 -8.4277,-0.39843 -8.49705,-0.32887 -0.0694,0.0695 -0.12612,11.51024 -0.12612,25.42371 v 25.29722 h -7.69035 c -4.22969,0 -7.78142,-0.0911 -7.89273,-0.20237 z m 37.6701,-64.28002 c 11.46981,-2.21195 16.17733,-7.93733 16.24488,-19.75735 0.0603,-10.55839 -4.89662,-15.72233 -17.23401,-17.95358 -3.3489,-0.60566 -16.47008,-0.75625 -19.42827,-0.22297 l -1.51783,0.27362 v 18.81738 18.81738 l 2.27675,0.36057 c 3.27973,0.5194 16.38613,0.29603 19.65848,-0.33505 z m -49.10445,-72.25846 c 0,-0.11086 0.63276,-2.81246 1.40613,-6.00356 l 1.40612,-5.802 -1.53133,-1.31932 c -5.04677,-4.34806 -5.23993,-9.713315 -0.39664,-11.017475 0.88718,-0.2389 1.3698,-0.59052 1.70789,-1.2443 l 0.47125,-0.9113 -8.58962,-4.186644 c -4.72431,-2.302648 -11.52665,-5.598395 -15.11632,-7.323886 -3.58968,-1.725482 -6.70175,-3.294662 -6.91571,-3.487071 -0.37096,-0.333566 11.045,-16.797681 12.19001,-17.580481 0.27262,-0.186368 4.80449,1.990888 14.42519,6.930335 11.36841,5.836746 14.11064,7.133232 14.46524,6.83894 0.65685,-0.545138 5.87023,-0.433453 7.96168,0.170569 4.71101,1.360543 8.84452,4.819088 11.16144,9.338868 1.12876,2.201969 1.31383,2.399687 3.02375,3.230477 14.92633,7.252193 27.20086,13.428003 27.11966,13.645013 -0.0562,0.15028 -2.62305,4.450045 -5.70405,9.555015 l -5.60181,9.28178 -5.63015,-2.91872 c -3.09658,-1.6053 -6.31317,-3.28865 -7.14798,-3.74077 -5.73191,-3.10437 -16.58182,-8.51063 -16.80424,-8.37316 -0.14939,0.0923 -0.0653,0.90002 0.18857,1.81229 1.2885,4.62929 -4.24738,7.27719 -10.93666,5.23119 l -1.74917,-0.535 -1.13472,0.90513 c -0.62409,0.49782 -1.54452,1.34054 -2.04541,1.87272 -1.42459,1.51361 -6.22312,5.85583 -6.22312,5.63136 z m 53.88805,-9.32867 c 1.83385,-3.03499 3.71835,-6.17196 4.1878,-6.97105 l 0.85352,-1.4529 -5.43935,-2.722875 -5.43937,-2.72286 -4.2176,6.722405 c -2.31968,3.69732 -4.2176,6.83632 -4.2176,6.97555 0,0.26666 10.0987,5.66282 10.6298,5.67995 0.1697,0.005 1.80895,-2.47322 3.6428,-5.50822 z m -43.88669,-3.71348 c 1.25616,-1.30836 1.47597,-1.32163 2.40605,-0.14525 l 0.72009,0.91078 -0.6442,0.68571 c -0.91382,0.97273 -0.87703,1.00782 1.47225,1.40407 6.10334,1.02946 7.2399,-1.95678 2.37151,-6.23099 -6.13765,-5.388585 -17.48007,-7.249645 -16.07306,-2.637265 0.64371,2.110155 3.16427,4.600495 3.47062,3.429005 0.22128,-0.84622 2.65029,-0.25428 2.65029,0.64587 0,0.51594 -0.89379,4.38044 -1.42325,6.15372 -0.17936,0.60073 2.86812,-1.9434 5.0497,-4.21565 z m 31.19983,-4.53175 4.23876,-6.781385 -6.48099,-3.236326 c -3.56454,-1.779978 -6.65092,-3.231088 -6.85861,-3.224695 -0.40467,0.01248 -8.17401,12.219071 -8.23433,12.937146 -0.0297,0.35331 12.17709,7.04908 12.90508,7.07882 0.10523,0.004 2.09876,-3.04381 4.43009,-6.77356 z m -16.05998,-7.975745 5.25759,-8.366721 -1.00766,-1.674755 c -2.61942,-4.353539 -7.4713,-7.099708 -12.48224,-7.064969 l -1.57878,0.01093 -4.85706,8.84493 c -2.67139,4.864721 -4.90258,8.957865 -4.95821,9.095895 -0.11216,0.27833 -0.008,0.31604 2.37789,0.85712 3.58814,0.8139 8.61518,3.4985 10.75751,5.744865 0.49039,0.5142 0.9685,0.93142 1.06249,0.92716 0.094,-0.004 2.5368,-3.772775 5.42847,-8.374475 z M 279.14663,82.684068 c 1.95661,-3.567133 3.51627,-6.517147 3.4659,-6.555577 -0.40539,-0.309317 -12.68082,-6.538478 -12.88301,-6.53748 -0.21629,8.61e-4 -3.37938,4.773008 -7.7813,11.739114 l -0.8409,1.330743 7.06402,3.439994 c 3.88521,1.891998 7.14362,3.356498 7.24091,3.254451 0.0973,-0.102056 1.77775,-3.104113 3.73438,-6.671245 z m -15.63906,-8.996207 c 1.74058,-2.671382 3.17891,-5.044101 3.1963,-5.272703 0.0302,-0.397329 -9.26571,-5.488018 -10.04134,-5.498886 -0.37222,-0.0052 -9.66774,12.685307 -9.45069,12.90236 0.0675,0.06755 2.64092,1.349485 5.71868,2.84881 l 5.5959,2.726042 0.90824,-1.42428 c 0.49953,-0.783351 2.33234,-3.609952 4.07291,-6.281343 z m 127.13177,35.164499 c -0.11025,-4.28461 -0.20086,-10.670895 -0.20135,-14.191745 l -8.6e-4,-6.401549 -6.30739,-9.56235 c -10.00638,-15.170149 -10.75236,-16.350623 -10.5448,-16.686477 0.21475,-0.347463 1.98751,-1.328945 2.11409,-1.170449 0.0432,0.05404 1.51043,2.283958 3.26057,4.955341 1.75014,2.671382 5.0831,7.725767 7.40657,11.231967 l 4.2245,6.374897 0.0796,-11.307856 0.0796,-11.307855 h 1.35862 1.35861 l 0.0796,11.119207 0.0796,11.119216 7.40325,-11.119216 c 4.07179,-6.115566 7.46583,-11.119207 7.5423,-11.119207 0.11165,0 0.82155,0.458365 2.14811,1.386977 0.0516,0.03614 -3.86826,6.011635 -8.71095,13.278822 l -8.80488,13.213063 0.18371,13.988704 0.1837,13.9887 h -1.36589 -1.3659 z M 131.8108,104.82341 c -0.17283,-0.32295 -0.31424,-2.03052 -0.31424,-3.79458 v -3.207415 h -14.11585 -14.11585 v -1.36605 -1.36605 h 14.11585 14.11585 v -3.66276 c 0,-2.014518 0.14141,-3.926987 0.31424,-4.249934 0.40526,-0.757218 47.58435,-0.941607 48.20945,-0.188416 0.18824,0.22682 0.36789,2.026572 0.41663,4.174037 l 0.0857,3.775293 14.20905,0.0789 14.20905,0.0789 -0.0932,1.28714 -0.0932,1.28715 -14.19174,0.0789 -14.19174,0.0789 v 3.311415 c 0,1.82127 -0.0829,3.52748 -0.18426,3.79158 -0.31746,0.82727 -47.93208,0.72196 -48.37572,-0.107 z m 45.89249,-8.823125 -0.0872,-6.678738 h -21.69371 -21.69372 v 6.678468 6.678465 l 21.78091,2.8e-4 21.7809,2.7e-4 z"
       id="path43"
       inkscape:label="ears_logo" /></g></g></svg>
